<?xml version="1.0" encoding="UTF-8" standalone="no"?>
<!-- Created with Inkscape (http://www.inkscape.org/) -->
<svg xmlns:dc="http://purl.org/dc/elements/1.1/" xmlns:cc="http://creativecommons.org/ns#" xmlns:rdf="http://www.w3.org/1999/02/22-rdf-syntax-ns#" xmlns:svg="http://www.w3.org/2000/svg" xmlns="http://www.w3.org/2000/svg" xmlns:sodipodi="http://sodipodi.sourceforge.net/DTD/sodipodi-0.dtd" xmlns:inkscape="http://www.inkscape.org/namespaces/inkscape" width="122" height="126" id="svg3175" version="1.1" inkscape:version="0.48.2 r9819" sodipodi:docname="dove 2.svg">
  <defs id="defs3177"/>
  <sodipodi:namedview id="base" pagecolor="#ffffff" bordercolor="#666666" borderopacity="1.0" inkscape:pageopacity="0.0" inkscape:pageshadow="2" inkscape:zoom="1.4" inkscape:cx="-21.64796" inkscape:cy="26.437326" inkscape:document-units="px" inkscape:current-layer="layer1" showgrid="false" fit-margin-top="0" fit-margin-left="0" fit-margin-right="0" fit-margin-bottom="0" inkscape:window-width="696" inkscape:window-height="726" inkscape:window-x="110" inkscape:window-y="61" inkscape:window-maximized="0" borderlayer="true"/>
  <g inkscape:label="Layer 1" inkscape:groupmode="layer" id="layer1" transform="translate(-477.68038,-236.24395)">
    <g id="g4058" transform="translate(95.714286,9.2857143)">
      <path style="fill:#f2f1f1" d="m 381.96609,289.95824 c 0,-63 0,-63 61,-63 61,0 61,0 61,63 0,63 0,63 -61,63 -61,0 -61,0 -61,-63 z" id="path4066" inkscape:connector-curvature="0"/>
      <path style="fill:#e2c301" d="m 394.96609,350.28698 c 0,-0.91919 -0.73068,-2.47865 -1.62373,-3.46546 -1.51873,-1.67818 -1.32608,-2.12524 2.97934,-6.9139 7.924,-8.81341 12.0686,-16.51104 10.6865,-19.84772 -1.09477,-2.64301 -0.85858,-3.11524 4.14851,-8.29419 12.62918,-13.06267 9.69222,-17.80747 -11.02253,-17.80747 -6.48856,0 -4.98167,-2.55254 4.33191,-7.33787 5.26892,-2.70718 5.20975,-2.95632 -0.63894,-2.69057 -9.76626,0.44375 -17.84653,-4.81617 -20.35027,-13.24718 -2.26597,-7.63036 -1.90755,-8.06851 2.77216,-3.38879 6.02767,6.02766 10.94493,7.26262 22.95829,5.7659 5.09232,-0.63443 10.57406,-1.25431 12.18164,-1.3775 3.90835,-0.29951 4.41721,-2.43036 0.90567,-3.79247 -1.5557,-0.60346 -4.4927,-1.95992 -6.52667,-3.01436 -5.33742,-2.767 -8.87046,-2.40871 -14.65884,1.48658 -6.18446,4.16184 -7.14275,3.46894 -7.87847,-5.69655 -0.82988,-10.33856 2.85519,-15.89774 13.32819,-20.10648 10.6321,-4.27269 13.04819,-5.46316 14.4046,-7.09753 2.26142,-2.72485 5.14577,-3.77568 12.97595,-4.72745 4.13968,-0.50318 9.10169,-1.13602 11.02669,-1.40631 2.28935,-0.32144 6.95902,0.58722 13.5,2.62693 8.68806,2.70925 11.23758,3.08452 19.43316,2.86048 11.3515,-0.31032 12.11675,0.55263 5.16929,5.82925 -2.76188,2.09766 -4.92729,4.45537 -4.81203,5.23937 0.2716,1.84727 11.77591,7.63519 18.20958,9.16139 8.49453,2.01509 8.26473,1.8424 5.5,4.13315 -5.91625,4.90197 -12.78385,7.0873 -20.12763,6.40477 -3.7798,-0.3513 -6.86137,-0.29808 -6.84792,0.11826 0.0134,0.41634 0.4378,2.55698 0.94301,4.75698 0.50522,2.2 1.62338,11.75349 2.4848,21.22998 1.54044,16.94625 2.01232,18.98306 7.68607,33.17632 0.96116,2.40441 1.03572,3.518 0.25348,3.78606 -4.97151,1.70367 -4.36138,8.2191 2.25285,24.05764 0.4133,0.98969 -9.28292,1.25 -46.56133,1.25 -43.32953,0 -47.08333,-0.13324 -47.08333,-1.67126 z m 60.41111,-95.40547 c 4.81863,-5.72661 3.23249,-7.80839 -1.84634,-2.42327 -4.71532,4.9997 -11.86437,3.44631 -12.74783,-2.76993 -0.37793,-2.65924 -2.14761,-2.96712 -2.63088,-0.4577 -1.32389,6.8744 12.40557,11.37853 17.22505,5.6509 z" id="path4064" inkscape:connector-curvature="0"/>
      <path style="fill:#c93e20" d="m 394.96609,350.28698 c 0,-0.91919 -0.73068,-2.47865 -1.62373,-3.46546 -1.51873,-1.67818 -1.32608,-2.12524 2.97934,-6.9139 7.924,-8.81341 12.0686,-16.51104 10.6865,-19.84772 -1.09477,-2.64301 -0.85858,-3.11524 4.14851,-8.29419 12.62918,-13.06267 9.69222,-17.80747 -11.02253,-17.80747 -6.48856,0 -4.98167,-2.55254 4.33191,-7.33787 5.26892,-2.70718 5.20975,-2.95632 -0.63894,-2.69057 -9.76626,0.44375 -17.84653,-4.81617 -20.35027,-13.24718 -2.26597,-7.63036 -1.90755,-8.06851 2.77216,-3.38879 6.02767,6.02766 10.94493,7.26262 22.95829,5.7659 5.09232,-0.63443 10.57406,-1.25431 12.18164,-1.3775 3.90835,-0.29951 4.41721,-2.43036 0.90567,-3.79247 -1.5557,-0.60346 -4.4927,-1.95992 -6.52667,-3.01436 -5.33742,-2.767 -8.87046,-2.40871 -14.65884,1.48658 -6.18446,4.16184 -7.14275,3.46894 -7.87847,-5.69655 -0.82988,-10.33856 2.85519,-15.89774 13.32819,-20.10648 10.6321,-4.27269 13.04819,-5.46316 14.4046,-7.09753 2.26142,-2.72485 5.14577,-3.77568 12.97595,-4.72745 4.13968,-0.50318 9.10169,-1.13602 11.02669,-1.40631 2.28935,-0.32144 6.95902,0.58722 13.5,2.62693 8.68806,2.70925 11.23758,3.08452 19.43316,2.86048 11.3515,-0.31032 12.11675,0.55263 5.16929,5.82925 -2.76188,2.09766 -4.92729,4.45537 -4.81203,5.23937 0.2716,1.84727 11.77591,7.63519 18.20958,9.16139 8.49453,2.01509 8.26473,1.8424 5.5,4.13315 -5.91625,4.90197 -12.78385,7.0873 -20.12763,6.40477 -3.7798,-0.3513 -6.86137,-0.29808 -6.84792,0.11826 0.0134,0.41634 0.4378,2.55698 0.94301,4.75698 0.50522,2.2 1.62338,11.75349 2.4848,21.22998 1.54044,16.94625 2.01232,18.98306 7.68607,33.17632 0.96116,2.40441 1.03572,3.518 0.25348,3.78606 -4.97151,1.70367 -4.36138,8.2191 2.25285,24.05764 0.4133,0.98969 -9.28292,1.25 -46.56133,1.25 -43.32953,0 -47.08333,-0.13324 -47.08333,-1.67126 z m 47.81102,-58.2276 c 9.85898,-5.27637 -8.24627,-52.11312 -20.13857,-52.09678 -5.34384,0.007 -16.88544,4.51801 -20.8248,8.13872 -5.96401,5.48159 -6.85755,17.13635 -0.99368,12.9609 4.33643,-3.08781 9.04854,-3.5008 13.5331,-1.18611 2.90533,1.49958 4.9747,1.85722 8.19343,1.41604 6.38357,-0.87496 12.41482,2.90317 15.28491,9.57485 4.86682,11.31325 4.97427,19.09962 0.24341,17.64004 -5.60347,-1.72881 -30.10882,-0.63372 -30.10882,1.34549 0,3.03985 29.73258,4.92475 34.81102,2.20685 z m -26.81102,-43.3537 c 0,-2.71818 2.7643,-4.17586 5.52961,-2.9159 2.36796,1.07891 3.42009,3.16846 1.59539,3.16846 -0.48125,0 -2.28125,0.28125 -4,0.625 -2.39078,0.47816 -3.125,0.27197 -3.125,-0.87756 z m 19,24.26834 c 0,-1.6014 -5.77023,-7.57888 -6.5568,-6.79231 -0.39716,0.39715 0.48856,2.30934 1.96824,4.24931 2.62234,3.43807 4.58856,4.52775 4.58856,2.543 z m 20.41111,-18.09251 c 4.81863,-5.72661 3.23249,-7.80839 -1.84634,-2.42327 -4.71532,4.9997 -11.86437,3.44631 -12.74783,-2.76993 -0.37793,-2.65924 -2.14761,-2.96712 -2.63088,-0.4577 -1.32389,6.8744 12.40557,11.37853 17.22505,5.6509 z" id="path4062" inkscape:connector-curvature="0"/>
      <path style="fill:#432719" d="m 395.46482,350.96029 c 0.33922,-0.54887 -0.1807,-2.34795 -1.15539,-3.99797 -1.77216,-3.00002 -1.77216,-3.00002 2.85639,-7.75205 8.10397,-8.32018 12.39764,-17.25466 9.62472,-20.02758 -0.90072,-0.90072 0.11857,-2.53228 4.36007,-6.97905 12.81878,-13.43915 11.70009,-16.55823 -6.43452,-17.94047 -14.28597,-1.0889 -3.40592,-9.24037 13.4839,-10.10231 5.58146,-0.28484 8.50638,-0.81384 8.10356,-1.46562 -0.41629,-0.67356 -4.40084,-0.74528 -11.7339,-0.21119 -19.96574,1.45418 -24.99544,-0.0397 -29.30025,-8.70247 -2.39911,-4.82786 -4.47947,-13.39438 -2.26415,-9.32334 3.02425,5.55759 9.88663,9.00143 17.88197,8.97396 7.45644,-0.0256 21.24955,-1.22185 23.96499,-2.07842 1.83008,-0.57728 -1.45884,-4.39381 -3.79111,-4.39928 -0.87725,-0.002 -3.14238,-0.94705 -5.03362,-2.1 -5.46458,-3.33135 -13.07867,-2.19514 -17.00667,2.5378 -5.08709,6.12958 -8.10543,-8.45366 -3.59282,-17.35887 2.30797,-4.55456 9.95104,-10.06335 13.98444,-10.07938 1.78581,-0.007 10.4039,-4.692 13.63961,-7.41468 3.05229,-2.56833 3.78685,-2.77137 11.41405,-3.1549 2.2,-0.11063 5.89463,-0.75199 8.21028,-1.42524 3.82609,-1.1124 5.14004,-0.94017 14.39937,1.88745 8.45474,2.58192 11.86582,3.11156 20.03972,3.11156 8.08945,0 9.85063,0.26818 9.85063,1.5 0,0.825 -0.3375,1.51343 -0.75,1.52984 -0.4125,0.0164 -2.74476,1.754 -5.1828,3.86131 -5.43499,4.69772 -1.6778,8.37842 13.1649,12.89691 10.43319,3.17613 10.44817,3.2162 2.65736,7.10931 -7.7515,3.87348 -12.05297,4.66983 -17.08328,3.16271 -5.24741,-1.57217 -5.14655,-1.86705 -3.44777,10.08053 0.81014,5.69766 1.76564,14.63439 2.12334,19.85939 0.81766,11.94363 2.75604,20.56234 6.11562,27.19214 2.64992,5.22937 2.01439,7.80786 -1.92442,7.80786 -1.56197,0 0.0796,8.46171 3.201,16.50041 2.61943,6.74587 2.73415,7.49959 1.14152,7.49959 -2.63678,0 -3.47244,-1.5022 -7.23185,-13 -3.43316,-10.5 -3.43316,-10.5 -8.76967,-13.2272 -2.93508,-1.49996 -6.38893,-3.7159 -7.67523,-4.92431 -2.70215,-2.53854 -2.59676,-2.90464 -2.34644,8.15151 0.23493,10.37653 1.74492,14.37889 7.2615,19.2473 4.24622,3.74729 4.24622,3.74729 0.78838,3.75 -2.61868,0.002 -4.3468,-0.86535 -7.12091,-3.5742 -3.66308,-3.5769 -3.66308,-3.5769 -5.87372,0 -4.06169,6.57194 -7.63661,5.01969 -3.98149,-1.72878 3.06122,-5.65193 5.75078,-18.12334 4.57131,-21.19699 -0.62253,-1.62228 -1.30027,-1.26919 -5.4956,2.86306 -5.56269,5.47903 -6.64063,5.38349 -10.6396,-0.94306 -5.83701,-9.2344 -9.26144,5.83175 -4.17226,18.3563 2.44378,6.01418 2.46266,6.22637 0.55405,6.22637 -2.02382,0 -6.85322,-8.56469 -6.87417,-12.19098 -0.0313,-5.41174 -7.59852,0.20716 -10.49572,7.79337 -1.79552,4.7015 -4.85825,6.0134 -5.78301,2.47712 -0.43995,-1.68239 -0.98134,-1.8102 -4.36663,-1.03087 -2.12542,0.48929 -4.67394,0.64119 -5.66337,0.33756 -0.98943,-0.30363 -2.8861,0.16026 -4.21482,1.03087 -2.71273,1.77745 -4.92506,2.10201 -3.98749,0.58498 z m 19.27171,-8.38334 c 6.50059,-3.36158 16.55756,-16.00872 17.84368,-22.4393 0.7534,-3.767 0.54512,-3.81146 -4.88287,-1.0423 -2.30399,1.17541 -6.39959,2.41291 -9.10133,2.75 -4.77983,0.59637 -5.01817,0.78811 -8.84152,7.11289 -2.1611,3.575 -5.47258,8.09397 -7.35884,10.04216 -5.14456,5.31347 -4.63659,6.32855 2.86563,5.72634 3.46235,-0.27792 7.72621,-1.24533 9.47525,-2.14979 z m -4.77044,-5.0775 c 0,-0.96301 8.32689,-11.54121 9.08495,-11.54121 1.87435,0 1.69089,1.91527 -0.46312,4.83486 -3.14904,4.2683 -8.62183,8.52521 -8.62183,6.70635 z m 40.81625,-14.30921 c 1.64138,-2.0724 4.01886,-5.8974 5.2833,-8.5 2.74287,-5.64567 4.02867,-5.87863 6.89032,-1.2484 5.64688,9.13685 22.13039,14.45101 17.59002,5.67088 -2.36613,-4.57558 -4.30071,-13.99063 -6.09335,-29.65448 -3.49876,-30.57186 -8.80845,-40.89765 -16.51614,-32.11907 -2.29313,2.61173 -4.30349,3.8086 -7.1661,4.26635 -3.97881,0.63624 -3.97881,0.63624 -3.14156,7.74448 2.73498,23.21974 -0.0353,28.60824 -14.70752,28.60824 -6.91457,0 -6.91457,0 -8.85433,3.80223 -1.06686,2.09123 -4.03374,6.13125 -6.59305,8.97782 -6.43159,7.15348 -5.01469,8.74751 5.10434,5.74248 2.73635,-0.81261 6.82706,-3.06261 9.09047,-5 5.44616,-4.66171 5.71924,-4.56161 7.71999,2.82976 3.4388,12.70393 6.48467,15.07775 11.39361,8.87971 z m -4.24448,-6.33733 c -1.48134,-3.52452 -0.18601,-14.35281 1.76135,-14.72396 1.67157,-0.31858 1.76935,0.16095 1.10958,5.44164 -1.01744,8.1433 -2.00613,11.33993 -2.87093,9.28232 z m 22.91509,-7.27438 c -3.09986,-4.73099 -6.14615,-45.18376 -3.11199,-41.32519 1.70866,2.17291 2.31598,6.14957 3.61139,23.64699 0.54735,7.39315 1.27444,14.93065 1.61575,16.75 0.73279,3.90608 0.0363,4.21172 -2.11515,0.9282 z m -27.55078,-16.49996 c 10.57731,-2.9539 -3.50233,-47.55589 -16.74347,-53.04055 -9.19463,-3.80854 -27.14685,7.32322 -27.97823,17.34868 -0.4973,5.99668 0.51209,7.03404 3.87926,3.98679 2.78818,-2.52326 9.37866,-2.95696 13.9066,-0.91514 2.54421,1.14728 5.15572,1.57399 7.40203,1.20946 8.7317,-1.41696 17.36212,8.4042 18.40174,20.94061 0.45086,5.43678 0.45086,5.43678 -12.42657,4.77168 -16.46265,-0.85027 -29.1237,2.12754 -17.62744,4.14588 2.0625,0.3621 5.325,1.01229 7.25,1.44486 4.29678,0.96554 20.60163,1.03892 23.93608,0.10773 z m -7.36646,-13.0434 c -4.67538,-5.16624 -10.6333,-6.0215 -24.74764,-3.55253 -8.33738,1.45843 -11.85861,1.2677 -18.32198,-0.99244 -1.75205,-0.61266 -1.70932,-0.44266 0.34466,1.37128 4.15714,3.67131 8.96474,4.30207 19.25496,2.52627 10.12185,-1.74675 15.4415,-1.3559 20.90038,1.53559 4.0871,2.16488 5.03583,1.83696 2.56962,-0.88817 z m 0.43038,-6.97118 c 0,-2.07171 -5.13736,-8.10575 -6.90121,-8.10575 -1.88907,0 -1.21596,1.97148 2.06858,6.05864 3.49402,4.34785 4.83263,4.91488 4.83263,2.04711 z m 55.4349,-14.081 c 3.82361,-1.45373 3.15526,-2.47347 -2.86489,-4.37116 -2.9865,-0.94141 -7.72183,-3.28816 -10.52295,-5.21499 -4.77615,-3.28541 -5.34033,-3.43672 -9.07,-2.43242 -5.28472,1.42302 -5.06719,2.12251 2.27294,7.30887 8.42396,5.95218 13.68701,7.18019 20.1849,4.7097 z m -34.6849,-3.54675 c 2.48792,-2.86335 2.99598,-6.478 0.91052,-6.478 -0.73672,0 -1.84642,1.11259 -2.466,2.47241 -2.38701,5.23893 -10.95425,4.39373 -12.41004,-1.22431 -0.93004,-3.58914 -3.78448,-4.48093 -3.78448,-1.18236 0,8.41519 12.18497,12.81705 17.75,6.41226 z m 4.42529,-11.01487 c 4.01832,-0.84528 9.78524,-2.71976 12.81538,-4.16551 5.50933,-2.62864 5.50933,-2.62864 -1.34176,-3.46971 -3.76809,-0.46259 -10.17412,-1.98803 -14.23562,-3.38987 -12.3105,-4.24901 -16.83333,-3.34165 -17.2205,3.45475 -0.34569,6.06824 0.21848,6.9901 4.96456,8.1122 5.07517,1.1999 7.08212,1.12749 15.01794,-0.54186 z m -24.37303,-5.71313 c -0.29728,-5.16345 -0.35793,-5.25532 -3.67942,-5.57284 -5.41571,-0.51772 -5.81539,1.11341 -1.52925,6.24101 4.88724,5.84671 5.57865,5.75802 5.20867,-0.66817 z m 6.57274,108.125 c 0.34375,-1.71875 0.625,-5.13125 0.625,-7.58333 0,-4.40398 2.06964,-5.84492 2.82216,-1.96487 0.51786,2.67017 -1.86431,12.6732 -3.01806,12.6732 -0.64726,0 -0.81288,-1.20612 -0.4291,-3.125 z m 29.30495,-4.13702 c -2.50839,-5.28605 -3.31359,-13.73798 -1.30878,-13.73798 0.89586,0 1.62883,0.18541 1.62883,0.41203 0,0.22662 0.67492,3.93912 1.49983,8.25 1.77244,9.26259 1.70433,8.33797 0.61411,8.33797 -0.48733,0 -1.58262,-1.46791 -2.43399,-3.26202 z" id="path4060" inkscape:connector-curvature="0"/>
    </g>
  </g>
  <metadata>
    <rdf:RDF>
      <cc:Work>
        <dc:format>image/svg+xml</dc:format>
        <dc:type rdf:resource="http://purl.org/dc/dcmitype/StillImage"/>
        <cc:license rdf:resource="http://creativecommons.org/licenses/publicdomain/"/>
        <dc:publisher>
          <cc:Agent rdf:about="http://openclipart.org/">
            <dc:title>Open Clip Art Library</dc:title>
          </cc:Agent>
        </dc:publisher>
        <dc:title>History Quiz Award</dc:title>
        <dc:date>2013-04-01T04:30:53</dc:date>
        <dc:description>This  clipart is a badge of History Quiz (http://en.globalquiz.org/history-quiz/). It has been released to public domain by globalquiz.org</dc:description>
        <dc:source>http://openclipart.org/detail/176673/history-quiz-award-by-global-quiz-176673</dc:source>
        <dc:creator>
          <cc:Agent>
            <dc:title>global quiz</dc:title>
          </cc:Agent>
        </dc:creator>
        <dc:subject>
          <rdf:Bag>
            <rdf:li>award</rdf:li>
            <rdf:li>bird</rdf:li>
            <rdf:li>clip art</rdf:li>
            <rdf:li>clipart</rdf:li>
            <rdf:li>eagle</rdf:li>
            <rdf:li>emblem</rdf:li>
            <rdf:li>heraldy</rdf:li>
            <rdf:li>history</rdf:li>
          </rdf:Bag>
        </dc:subject>
      </cc:Work>
      <cc:License rdf:about="http://creativecommons.org/licenses/publicdomain/">
        <cc:permits rdf:resource="http://creativecommons.org/ns#Reproduction"/>
        <cc:permits rdf:resource="http://creativecommons.org/ns#Distribution"/>
        <cc:permits rdf:resource="http://creativecommons.org/ns#DerivativeWorks"/>
      </cc:License>
    </rdf:RDF>
  </metadata>
</svg>
